<?xml version="1.0" encoding="UTF-8"?>
<svg width="1600" height="800" viewBox="0 0 1600 800" xmlns="http://www.w3.org/2000/svg">
  <!-- Background -->
  <defs>
    <linearGradient id="bgGradient" x1="0%" y1="0%" x2="100%" y2="100%">
      <stop offset="0%" stop-color="#F7F5EF"/>
      <stop offset="100%" stop-color="#D7D0C0"/>
    </linearGradient>
    <pattern id="patternGrid" width="60" height="60" patternUnits="userSpaceOnUse">
      <rect width="60" height="60" fill="url(#bgGradient)"/>
      <path d="M 60 0 L 0 0 0 60" fill="none" stroke="#815C42" stroke-width="0.5" opacity="0.1"/>
    </pattern>
  </defs>
  
  <rect width="1600" height="800" fill="url(#patternGrid)"/>
  
  <!-- Decorative Elements -->
  <circle cx="200" cy="400" r="300" fill="#334036" opacity="0.03"/>
  <circle cx="1400" cy="400" r="300" fill="#815C42" opacity="0.03"/>
  
  <!-- Mandala Element -->
  <g transform="translate(800, 400) scale(0.8)">
    <circle cx="0" cy="0" r="240" fill="none" stroke="#D7D0C0" stroke-width="4" opacity="0.2"/>
    <circle cx="0" cy="0" r="200" fill="none" stroke="#815C42" stroke-width="3" opacity="0.2"/>
    <circle cx="0" cy="0" r="160" fill="none" stroke="#334036" stroke-width="2" opacity="0.2"/>
    
    <!-- Decorative Rays -->
    <g>
      <line x1="0" y1="0" x2="300" y2="0" stroke="#C7AF95" stroke-width="2" opacity="0.2"/>
      <line x1="0" y1="0" x2="260" y2="150" stroke="#C7AF95" stroke-width="2" opacity="0.2"/>
      <line x1="0" y1="0" x2="150" y2="260" stroke="#C7AF95" stroke-width="2" opacity="0.2"/>
      <line x1="0" y1="0" x2="0" y2="300" stroke="#C7AF95" stroke-width="2" opacity="0.2"/>
      <line x1="0" y1="0" x2="-150" y2="260" stroke="#C7AF95" stroke-width="2" opacity="0.2"/>
      <line x1="0" y1="0" x2="-260" y2="150" stroke="#C7AF95" stroke-width="2" opacity="0.2"/>
      <line x1="0" y1="0" x2="-300" y2="0" stroke="#C7AF95" stroke-width="2" opacity="0.2"/>
      <line x1="0" y1="0" x2="-260" y2="-150" stroke="#C7AF95" stroke-width="2" opacity="0.2"/>
      <line x1="0" y1="0" x2="-150" y2="-260" stroke="#C7AF95" stroke-width="2" opacity="0.2"/>
      <line x1="0" y1="0" x2="0" y2="-300" stroke="#C7AF95" stroke-width="2" opacity="0.2"/>
      <line x1="0" y1="0" x2="150" y2="-260" stroke="#C7AF95" stroke-width="2" opacity="0.2"/>
      <line x1="0" y1="0" x2="260" y2="-150" stroke="#C7AF95" stroke-width="2" opacity="0.2"/>
    </g>
  </g>
  
  <!-- Flowing Lines representing Ayurvedic Energy -->
  <path d="M 100,300 C 300,250 500,350 700,300 C 900,250 1100,350 1300,300 C 1500,250 1700,350 1900,300" 
        fill="none" stroke="#ABB087" stroke-width="3" opacity="0.2"/>
  <path d="M 100,500 C 300,450 500,550 700,500 C 900,450 1100,550 1300,500 C 1500,450 1700,550 1900,500" 
        fill="none" stroke="#815C42" stroke-width="3" opacity="0.2"/>
</svg>
