<?xml version="1.0" encoding="UTF-8"?>
<svg width="200" height="200" viewBox="0 0 200 200" xmlns="http://www.w3.org/2000/svg">
  <!-- Health & Wellness Icon -->
  <circle cx="100" cy="100" r="95" fill="#F7F5EF" stroke="#C7AF95" stroke-width="2"/>
  
  <!-- Heart Shape -->
  <path d="M100,160 C60,120 20,100 40,60 C60,20 100,40 100,80 C100,40 140,20 160,60 C180,100 140,120 100,160 Z" 
        fill="#815C42" opacity="0.7"/>
        
  <!-- Lotus Position (Yoga) -->
  <circle cx="100" cy="100" r="30" fill="#334036" opacity="0.8"/>
  <path d="M100,80 C110,80 120,90 120,100 C120,110 110,120 100,120 C90,120 80,110 80,100 C80,90 90,80 100,80 Z" 
        fill="#D7D0C0" stroke="#334036" stroke-width="1"/>
  
  <!-- Head/Mind -->
  <circle cx="100" cy="70" r="10" fill="#C4B99F"/>
  
  <!-- Decorative Lines -->
  <path d="M40,110 C50,100 60,90 70,100 C80,110 90,100 100,110 C110,100 120,110 130,100 C140,90 150,100 160,90" 
        fill="none" stroke="#ABB087" stroke-width="2" opacity="0.6"/>
</svg>
